{"title":"Reality Kings - Belle Knox Fresh Outta Duke University.mp4","uid":9860959,"size":151364955,"categoryP":"porn","categoryS":"movie_clips","magnet":"?xt=urn:btih:4b5c1f2fc627349b8e715a7bbf4f6d227aab7582&amp;dn=Reality+Kings+-+Belle+Knox+Fresh+Outta+Duke+University.mp4&amp;tr=udp%3A%2F%2Ftracker.openbittorrent.com%3A80&amp;tr=udp%3A%2F%2Fopen.demonii.com%3A1337&amp;tr=udp%3A%2F%2Ftracker.coppersurfer.tk%3A6969&amp;tr=udp%3A%2F%2Fexodus.desync.com%3A6969","seeders":3,"leechers":5,"uploader":"JarleH666","files":-1,"time":1396297561,"description":"General\nComplete name                            : Reality Kings - Belle Knox Fresh Outta Duke University.mp4\nFormat                                   : MPEG-4\nFormat profile                           : Base Media / Version 2\nCodec ID                                 : mp42\nFile size                                : 144 MiB\nDuration                                 : 12mn 2s\nOverall bit rate mode                    : Variable\nOverall bit rate                         : 1 677 Kbps\nWriting application                      : Lavf55.19.104\n\nVideo\nID                                       : 201\nFormat                                   : AVC\nFormat/Info                              : Advanced Video Codec\nFormat profile                           : &lt;a class=&quot;__cf_email__&quot; href=&quot;/cdn-cgi/l/email-protection&quot; data-cfemail=&quot;3e765759567e720d100f&quot;&gt;[email&amp;#160;protected]&lt;/a&gt;&lt;script cf-hash='f9e31' type=&quot;text/javascript&quot;&gt;\n/* &lt;![CDATA[ */!function(){try{var t=&quot;currentScript&quot;in document?document.currentScript:function(){for(var t=document.getElementsByTagName(&quot;script&quot;),e=t.length;e--;)if(t[e].getAttribute(&quot;cf-hash&quot;))return t[e]}();if(t&amp;&amp;t.previousSibling){var e,r,n,i,c=t.previousSibling,a=c.getAttribute(&quot;data-cfemail&quot;);if(a){for(e=&quot;&quot;,r=parseInt(a.substr(0,2),16),n=2;a.length-n;n+=2)i=parseInt(a.substr(n,2),16)^r,e+=String.fromCharCode(i);e=document.createTextNode(e),c.parentNode.replaceChild(e,c)}}}catch(u){}}();/* ]]&gt; */&lt;/script&gt;\nFormat settings, CABAC                   : Yes\nFormat settings, ReFrames                : 4 frames\nCodec ID                                 : avc1\nCodec ID/Info                            : Advanced Video Coding\nDuration                                 : 12mn 2s\nBit rate                                 : 1 500 Kbps\nWidth                                    : 1 280 pixels\nHeight                                   : 720 pixels\nDisplay aspect ratio                     : 16:9\nFrame rate mode                          : Constant\nFrame rate                               : 24.000 fps\nColor space                              : YUV\nChroma subsampling                       : 4:2:0\nBit depth                                : 8 bits\nScan type                                : Progressive\nBits/(Pixel*Frame)                       : 0.068\nStream size                              : 129 MiB (89%)\nWriting library                          : x264 core 140 r2 1ca7bb9\nLanguage                                 : English\nTagged date                              : UTC 2014-02-28 18:59:32\n\nAudio\nID                                       : 101\nFormat                                   : AAC\nFormat/Info                              : Advanced Audio Codec\nFormat profile                           : LC\nCodec ID                                 : 40\nDuration                                 : 12mn 1s\nBit rate mode                            : Variable\nBit rate                                 : 96.0 Kbps\nMaximum bit rate                         : 1 500 Kbps\nChannel(s)                               : 2 channels\nChannel positions                        : Front: L R\nSampling rate                            : 48.0 KHz\nCompression mode                         : Lossy\nStream size                              : 8.26 MiB (6%)\nLanguage                                 : English\nTagged date                              : UTC 2014-02-28 18:59:32\n","torrent":{"xt":"urn:btih:4b5c1f2fc627349b8e715a7bbf4f6d227aab7582","amp;dn":"Reality+Kings+-+Belle+Knox+Fresh+Outta+Duke+University.mp4","amp;tr":["udp%3A%2F%2Ftracker.openbittorrent.com%3A80","udp%3A%2F%2Fopen.demonii.com%3A1337","udp%3A%2F%2Ftracker.coppersurfer.tk%3A6969","udp%3A%2F%2Fexodus.desync.com%3A6969"],"infoHash":"4b5c1f2fc627349b8e715a7bbf4f6d227aab7582","infoHashBuffer":{"type":"Buffer","data":[75,92,31,47,198,39,52,155,142,113,90,123,191,79,109,34,122,171,117,130]},"announce":[],"urlList":[]}}